<svg id="Layer_1" data-name="Layer 1" xmlns="http://www.w3.org/2000/svg" viewBox="0 0 216 216"><defs><style>.cls-1{fill:#3b8594;}.cls-2{fill:#b9e1ea;fill-opacity:0.76;stroke:#3b8594;stroke-linecap:round;stroke-linejoin:round;stroke-width:2px;}</style></defs><title>Artboard 1</title><path class="cls-1" d="M84.55,57.74C65,54.19,49.62,57.91,43.47,68.55c-4.58,8-3.27,18.48,3.18,29.74a2,2,0,0,0,3.47-2c-5.81-10.14-6.94-19.23-3.18-25.75C52,61.71,65.8,58.4,83.83,61.68a2,2,0,0,0,.72-3.94ZM56.8,112a124.85,124.85,0,0,0,29.81,23.54c28.3,16.34,58.41,20.71,73.26,10.58a2,2,0,0,0-2.25-3.3c-13.29,9.06-41.9,4.91-69-10.74a121.46,121.46,0,0,1-28.86-22.77,2,2,0,0,0-3,2.69Z"/><path class="cls-1" d="M155.13,109.54c12.77-15.09,17.23-30.26,11.1-40.88-4.51-7.82-14-11.95-26.73-12.11a2,2,0,1,0-.06,4c11.41.15,19.63,3.7,23.33,10.11,5.09,8.82,1.11,22.35-10.69,36.3a2,2,0,0,0,3,2.58ZM122.31,58.41A124.8,124.8,0,0,0,86.67,72.54C57.46,89.4,38.41,114.26,41.06,132.29a2,2,0,1,0,4-.58C42.67,115.7,60.73,92.13,88.67,76a121.1,121.1,0,0,1,34.48-13.68,2,2,0,1,0-.84-3.91Z"/><path class="cls-1" d="M75,144.79c6.67,18.65,17.6,30.13,29.88,30.13,9,0,17.25-6.11,23.71-16.86a2,2,0,1,0-3.43-2.06c-5.81,9.66-12.94,14.92-20.28,14.92-10.2,0-19.95-10.24-26.12-27.48A2,2,0,1,0,75,144.79Zm61-3.65a125.76,125.76,0,0,0,5.31-37.06c0-33.14-11.6-61.7-28.11-69a2,2,0,0,0-1.63,3.66c14.73,6.54,25.74,33.65,25.74,65.38A121.68,121.68,0,0,1,132.17,140a2,2,0,1,0,3.82,1.19Z"/><path class="cls-1" d="M173.66,139.18a9.58,9.58,0,1,0-9.58,9.58,9.58,9.58,0,0,0,9.58-9.58Zm-4,0a5.58,5.58,0,1,1-5.58-5.57,5.58,5.58,0,0,1,5.58,5.57Z"/><path class="cls-1" d="M45.54,148.76A9.58,9.58,0,1,0,36,139.18a9.57,9.57,0,0,0,9.57,9.58Zm0-4a5.58,5.58,0,1,1,5.57-5.58,5.57,5.57,0,0,1-5.57,5.58Z"/><path class="cls-1" d="M104.88,44.81a9.58,9.58,0,1,0-9.57-9.57,9.57,9.57,0,0,0,9.57,9.57Zm0-4a5.58,5.58,0,1,1,5.57-5.57,5.57,5.57,0,0,1-5.57,5.57Z"/><path class="cls-1" d="M106.34,110.85a6.93,6.93,0,1,1,5.31-8.24A6.93,6.93,0,0,1,106.34,110.85Z"/><path class="cls-2" d="M204.38,100.5c-13.1-15-33.88,11.81-36.75,19.13-2.71,6.86-11.79,9-13.6,4.12-2.65-7.12,4.3-13.25,9.05-19.67a74.56,74.56,0,0,0,9.58-16.7,12.18,12.18,0,0,0-3.76-14.63c-4.62-3.54-11.43-2.14-15.54.25-5.56,3.24-8.09,8.74-10.66,14.5-1,2.36-2.3,5.56-8.43,29-1.12,4.26-1.26,14.51-8.43,13.57-4.34-.57-3.34-4.33-.23-14.07,2.73-8.57,3.57-11.91,2.81-14-1.28-3.5-5.82-4.68-8.37-3.5-2.94,1.36-2.46,7.3-3.77,18-1.17,9.55-2.11,17.23-5.11,23.75-4.43,9.66-13.3,21.75-24.87,19-2.66-.63-8.66-3.7-20.42-11-6.14-3.81-14.66-9.23-26.2-12.75-4.83-1.47-11.8-4.25-16-.75-7.88,6.49,8.29,11.3,12.72,12.25,8.19,1.76,8.19,10-6.22,5.5-5.25-1.64-24.25-.12-18.63,8.13,3.95,5.78,13,3.42,26,1.37,6.35-1,14.78,5.3,15.76,11.5.82,5.17-8,11.69-7.9,16.24a3.65,3.65,0,0,0,.1.8,4.51,4.51,0,0,0,.17.52l0,.11a5.46,5.46,0,0,0,1.89,2.37c6.71,5.75,28.27,10,53.84,10,30.94,0,56-6.16,56-13.76,0-.78-17.08-34.24,36.5-35.36,18.49-.39,8.31-26.33-13.21-10.88-5.34,3.83-10.83-7.65,10.9-19.08C202.28,118.77,211.45,108.59,204.38,100.5Z"/><path class="cls-1" d="M151.87,201.64c-8.43,3.19-17.39,4.84-26.33,5.92a208.49,208.49,0,0,1-27,1.38,199.62,199.62,0,0,1-27-2.09,127.34,127.34,0,0,1-13.27-2.71L55,203.19c-1.07-.37-2.15-.69-3.21-1.09a44.24,44.24,0,0,1-6.16-2.77,64.21,64.21,0,0,0,12.85,3.85c4.38.92,8.8,1.59,13.25,2.12a257.68,257.68,0,0,0,26.79,1.64c4.47.08,9,0,13.42-.14s9-.42,13.41-.79,8.91-.89,13.34-1.58A106.05,106.05,0,0,0,151.87,201.64Z"/><path class="cls-1" d="M159.24,183.83a17.17,17.17,0,0,1,3.79,2.29,10,10,0,0,1,2.91,3.57,6.73,6.73,0,0,1,.32,4.84,10.58,10.58,0,0,1-2.56,4,22.26,22.26,0,0,1-3.6,2.79,30.89,30.89,0,0,1-4,2,39.11,39.11,0,0,1-8.41,2.58c2.61-1.33,5.22-2.58,7.72-4a31.7,31.7,0,0,0,6.83-4.84,9,9,0,0,0,2.19-3.2,5.44,5.44,0,0,0,0-3.67,10.6,10.6,0,0,0-2.14-3.45A32.83,32.83,0,0,0,159.24,183.83Z"/><path class="cls-1" d="M44.42,183.83a32.87,32.87,0,0,0-3.91,4.26,6.86,6.86,0,0,0-1.5,4.79,8.9,8.9,0,0,0,2.4,4.6,49.25,49.25,0,0,0,4.22,4,16,16,0,0,1-5.31-2.9,8.75,8.75,0,0,1-3.3-5.48,6.8,6.8,0,0,1,.48-3.35,9,9,0,0,1,1.81-2.67A13.88,13.88,0,0,1,44.42,183.83Z"/></svg>